<?xml version="1.0" encoding="utf-8"?>
<!-- Generator: Adobe Illustrator 23.0.1, SVG Export Plug-In . SVG Version: 6.00 Build 0)  -->
<svg version="1.1"
	 id="svg4186" inkscape:version="0.91 r13725" sodipodi:docname="London.svg" xmlns:cc="http://creativecommons.org/ns#" xmlns:dc="http://purl.org/dc/elements/1.1/" xmlns:inkscape="http://www.inkscape.org/namespaces/inkscape" xmlns:rdf="http://www.w3.org/1999/02/22-rdf-syntax-ns#" xmlns:sodipodi="http://sodipodi.sourceforge.net/DTD/sodipodi-0.dtd" xmlns:svg="http://www.w3.org/2000/svg"
	 xmlns="http://www.w3.org/2000/svg" xmlns:xlink="http://www.w3.org/1999/xlink" x="0px" y="0px" viewBox="0 0 595.3 841.9"
	 style="enable-background:new 0 0 595.3 841.9;" xml:space="preserve">
<style type="text/css">
	.st0{fill:none;}
	.st1{fill-rule:evenodd;clip-rule:evenodd;}
</style>
<sodipodi:namedview  bordercolor="#666666" borderopacity="1.0" id="base" inkscape:current-layer="layer1" inkscape:cx="171.55275" inkscape:cy="436.51052" inkscape:document-units="px" inkscape:pageopacity="0.0" inkscape:pageshadow="2" inkscape:window-height="715" inkscape:window-maximized="1" inkscape:window-width="1366" inkscape:window-x="-8" inkscape:window-y="-8" inkscape:zoom="0.49497475" pagecolor="#ffffff" showgrid="false">
	</sodipodi:namedview>
<g id="layer1" inkscape:groupmode="layer" inkscape:label="Layer 1">
	<rect id="rect4740" x="-44.7" y="106.2" class="st0" width="640" height="480"/>
	<path id="path31" inkscape:connector-curvature="0" class="st1" d="M344.7,373.3l11.5-42.9l-2.7-0.7l-0.5-0.1l-2.7-0.3l-2.5-0.3
		c-0.3,0-0.7,0-1,0h-2.1L344.7,373.3L344.7,373.3z M28.8,434.3H10.5v27H4v10.7h28.5h559.2v-3.7v-7v-11.9v-7.7v-14.8v-12.6H574v6.1
		c-6.1-2.8-11.6-5.9-16.3-9.2c-7.8-5.5-13.8-11.9-17.8-19.2V379h-1.2v-3.6v-0.5h-0.1l-0.6-2.5l-0.2-1.6v-0.9h0.3
		c0.3,0,0.7-0.3,0.7-0.7l0,0c0-0.3-0.3-0.6-0.7-0.6h-0.3v-0.9h-0.7v0.9h-0.4c-0.3,0-0.6,0.2-0.6,0.6l0,0c0,0.3,0.2,0.7,0.6,0.7h0.4
		v1l-0.4,1.5l-0.5,2.5h-1.6l-1.4-3.9l-2.8-8.8v-0.9h1.3c0.3,0,0.6-0.3,0.6-0.7c-0.1-0.2-0.1-0.5-1.9-0.5v-1.8h-0.8v1.8
		c-1,0-1.6-0.1-1.7,0.3c-0.2,0.6,0,0.8,0.5,0.8h1.3v0.9l-2.9,8.8l-1.3,3.9h-1.6l-0.6-2.5l-0.2-1.6v-0.9h0.3c0.3,0,0.6-0.3,0.6-0.7
		l0,0c0-0.3-0.2-0.6-0.6-0.6h-0.3v-0.9h-0.7v0.9h-0.3c-0.3,0-0.6,0.2-0.6,0.6l0,0c0,0.3,0.2,0.7,0.6,0.7h0.3v1l-0.2,1.5l-0.6,2.5
		h-0.1v0.5v3.6h-1.2v6.7h-14.8v-3.6h-0.6v3.6c-5.4,0-10.8,0-16.1,0v-3.6h-0.6v3.6h-14.8V379h-1.2v-3.6v-0.5h-0.1l-0.6-2.5l-0.3-1.5
		v-1h0.5c0.3,0,0.6-0.3,0.6-0.7l0,0c0-0.3-0.2-0.6-0.6-0.6h-0.5v-0.9h-0.6v0.9h-0.3c-0.4,0-0.7,0.2-0.7,0.6l0,0
		c0,0.3,0.3,0.7,0.7,0.7h0.3v0.9l-0.3,1.6l-0.5,2.5h-1.7l-1.3-3.9l-2.8-8.8v-0.9h1.3c0.5,0,0.7-0.2,0.5-0.8
		c-0.1-0.5-0.7-0.3-1.7-0.3v-1.8h-0.8v1.8c-1.7,0-1.7,0.2-1.9,0.5c0,0.3,0.2,0.7,0.6,0.7h1.3v0.9l-2.9,8.8l-1.3,3.9h-1.6l-0.6-2.5
		l-0.2-1.5v-1h0.3c0.3,0,0.6-0.3,0.6-0.7l0,0c0-0.3-0.2-0.6-0.6-0.6h-0.3v-0.9H456v0.9h-0.5c-0.2,0-0.6,0.2-0.6,0.6l0,0
		c0,0.3,0.3,0.7,0.6,0.7h0.5v0.9l-0.3,1.6l-0.5,2.5h-0.1v0.5v3.6h-1.2V392c-4.1,7.3-10.1,13.6-17.9,19.2c-0.9,0.8-2,1.4-3,2.1
		c-0.3-0.2-0.7-0.3-1.2-0.3V412v-3.4c0-1.2-0.3-2.3-1-3.2V405c0-2.3-1.7-4.3-3.9-4.6v-6.8h-1.2v6.8c-2.3,0.3-4.1,2.3-4.1,4.6v0.5
		c-0.7,0.9-1,2.1-1,3.2v3.4l0,0v-2.3h-2.4v2.3h-1.7v-2.3H414v2.3h-1.7v-2.3h-2.5v2.3H408v-2.3h-2.4v2.3h-1.7v-2.3h-2.4v2.3l0,0v-3.4
		c0-1.2-0.4-2.3-1-3.2V405c0-2.3-1.7-4.3-3.9-4.6v-4.3c0.3-1.2,0.8-2.4,1.2-3.6c0.3,0.5,0.8,0.8,1.4,1c1.3,0.2,2.7-0.5,3-1.7
		c0.2-1.3-0.5-2.5-1.7-2.9c-0.6-0.2-1.3-0.1-1.7,0.1c0.8-3.5,1.3-7.2,1.4-11c0.5,0.5,1,0.7,1.7,0.7c1.3,0,2.3-1,2.3-2.4
		c0-1.3-1-2.3-2.3-2.3c-0.7,0-1.3,0.2-1.7,0.6c-0.1-3.7-0.6-7.4-1.4-11c0.5,0.3,1.2,0.3,1.7,0.2c1.3-0.3,2-1.6,1.7-2.9
		c-0.3-1.3-1.7-2.1-3-1.7c-0.6,0.2-1,0.6-1.4,1c-1-3.6-2.4-6.9-4.2-10.2c0.5,0.1,1.2,0,1.6-0.2c1.2-0.7,1.6-2.2,0.9-3.4
		c-0.7-1-2.1-1.5-3.2-0.8c-0.6,0.3-0.9,0.8-1.2,1.4c-1.9-3.2-4.2-6.1-6.7-8.8c0.6,0,1.2-0.2,1.6-0.7c0.9-0.9,0.9-2.4,0-3.3
		c-0.9-1-2.4-1-3.4,0c-0.5,0.3-0.7,0.9-0.7,1.5c-2.7-2.4-5.7-4.7-8.8-6.7c0.6-0.1,1-0.6,1.4-1c0.6-1.2,0.2-2.7-0.9-3.2
		c-1.2-0.7-2.5-0.3-3.2,0.8c-0.3,0.6-0.3,1.2-0.2,1.7c-3.2-1.7-6.7-3.1-10.3-4.3c0.6-0.2,0.9-0.8,1-1.4c0.3-1.3-0.3-2.5-1.6-2.9
		c-1.3-0.3-2.7,0.5-3,1.7c-0.1,0.6,0,1.2,0.2,1.6c-3.6-0.8-7.2-1.3-11-1.4c0.5-0.5,0.7-1,0.7-1.6c0-1.3-1.2-2.4-2.4-2.4
		c-1.3,0-2.3,1.2-2.3,2.4c0,0.6,0.2,1.2,0.6,1.6c-3.7,0.1-7.4,0.6-11,1.4c0.2-0.5,0.3-1,0.2-1.6c-0.4-1.3-1.6-2.1-2.9-1.7
		c-1.3,0.3-2.1,1.6-1.7,2.9c0.1,0.6,0.6,1.2,1,1.4c-3.6,1.2-7.1,2.5-10.3,4.3c0.2-0.6,0.1-1.2-0.2-1.7c-0.6-1.2-2.1-1.5-3.2-0.8
		c-1.2,0.6-1.5,2.1-0.8,3.2c0.2,0.5,0.8,0.9,1.3,1c-3.1,2-6,4.3-8.8,6.7c0-0.6-0.2-1.2-0.7-1.5c-0.9-1-2.4-1-3.4,0
		c-0.9,0.9-0.9,2.4,0,3.3c0.5,0.5,1,0.7,1.6,0.7c-2.5,2.7-4.7,5.5-6.7,8.8c-0.2-0.6-0.6-1-1.2-1.4c-1.2-0.7-2.5-0.2-3.2,0.8
		c-0.6,1.2-0.2,2.7,0.9,3.4c0.5,0.2,1.2,0.3,1.7,0.2c-1.7,3.2-3.2,6.6-4.3,10.2c-0.4-0.5-0.8-0.8-1.4-1c-1.3-0.3-2.5,0.5-2.9,1.7
		c-0.3,1.3,0.3,2.5,1.6,2.9c0.6,0.1,1.3,0.1,1.7-0.2c-0.8,3.6-1.3,7.3-1.4,11c-0.5-0.3-1-0.6-1.6-0.6c-1.4,0-2.4,1-2.4,2.3
		c0,1.4,1,2.4,2.4,2.4c0.6,0,1.2-0.2,1.6-0.7c0.1,3.8,0.6,7.5,1.4,11c-0.5-0.2-1.2-0.3-1.7-0.1c-1.3,0.3-2,1.6-1.6,2.9
		c0.3,1.3,1.6,2,2.9,1.7c0.6-0.2,1-0.6,1.4-1c1,3.6,2.5,6.9,4.3,10.2c-0.6-0.1-1.3,0-1.7,0.2c-1.2,0.7-1.5,2.2-0.9,3.2
		c0.7,1.2,2.2,1.6,3.2,0.9c0.6-0.3,0.9-0.8,1.2-1.4c2,3.1,4.2,6.1,6.7,8.8h-0.1h-7.4v7.5h-22.2v-3l-1.7-57.1c0-3-2-4.3-6.8-6.6
		c0-7.4,0-14.7,0-22.1c0.5-2.1-1-4.4-4.3-6.7c2.4,5.3,1.7,9.5-2.2,12.5c-4.2,2-6.6,5.4-7.2,10.6v92.1h-10.3c2-17,2.8-33,2.3-48.4
		c-0.8-22.4-3.8-44.3-9.9-62.9c-4.2-12.5-7.5-16.5-10.8-16.4c-3.5,0.1-6.8,4.9-10.9,17.4c-5.9,18.4-8.8,39.7-9.6,61.8
		c-0.5,15.4,0.3,31.4,2.3,48.4h-16.1v-2.7c0,0-0.6,0-1.7,0c0,0,0-4.9,0-14.6c1.7-1.3,1.6-2.3-0.1-3c0,0,0-4.9,0-14.6
		c0.6-0.3,0.9-0.7,1.2-1c-0.3-1.3-1.5-2.1-3.4-2.5c0,0,0-2,0-6c0.7-0.2,1-0.6,1-0.9c-0.1-0.8-0.9-1.2-2.2-1.3c0-1.6-0.3-2.7-1-3.2
		c0-2.3,0-4.6,0-6.9c1.2-0.6,1.7-1,1.7-1.6c-0.2-0.3-0.7-0.6-1.6-0.6c0.1-1.3-0.5-2.4-1.9-3.3c-0.1-2.7-0.9-4.6-2.4-6
		c0-1,0-2.1,0-3.4c0,0-0.2,0-0.7,0c0,0-0.2-1-0.5-3c-0.3,2-0.5,3-0.5,3c-0.5,0-0.8,0-0.8,0c0,1.3,0,2.3,0,3.4
		c-1.5,1.4-2.3,3.3-2.4,6c-1.3,0.9-1.9,2.1-1.7,3.3c-0.9,0-1.5,0.2-1.6,0.6c-0.1,0.6,0.5,1,1.6,1.6c0,2.3,0,4.6,0,6.9
		c-0.7,0.6-0.9,1.6-0.9,3.2c-1.4,0.1-2.1,0.5-2.3,1.3c0.1,0.3,0.5,0.7,1,0.9c0,4,0,6,0,6c-1.4,0.3-2.4,1-3,2h-3v-3.2h-5.7v-3.5
		l-1.6-0.3v-0.1c0.2-4.2-2-8.1-5.7-9.9c0-0.9-0.5-1.8-1.4-2.2c0-2.7,0-4.7,0-6.4c0.2-0.9-0.1-1.7-1-2.7l0.1-2.7h-0.9h-1l0.1,2.7
		c-0.9,0.9-1.3,1.7-1,2.7c0,1.6,0,3.7,0,6.4c-0.9,0.3-1.4,1.3-1.4,2.2c-3.7,1.8-5.9,5.8-5.7,9.9v0.1l-1.6,0.3v3.5H131v3.2h-3
		c-0.6-0.9-1.6-1.6-3-2c0,0,0-2,0-6c0.6-0.2,0.9-0.6,1-0.9c-0.2-0.8-0.9-1.2-2.3-1.3c0-1.6-0.2-2.7-0.9-3.2c0-2.3,0-4.6,0-6.9
		c1.2-0.6,1.7-1,1.6-1.6c-0.1-0.3-0.7-0.6-1.6-0.6c0.1-1.3-0.5-2.4-1.7-3.3c-0.1-2.7-0.9-4.6-2.4-6c0-1,0-2.1,0-3.4c0,0-0.3,0-0.8,0
		c0,0-0.1-1-0.5-3c-0.2,2-0.5,3-0.5,3c-0.5,0-0.7,0-0.7,0c0,1.3,0,2.3,0,3.4c-1.5,1.4-2.3,3.3-2.4,6c-1.4,0.9-2,2.1-1.9,3.3
		c-0.9,0-1.4,0.2-1.6,0.6c0,0.6,0.6,1,1.7,1.6c0,2.3,0,4.6,0,6.9c-0.7,0.6-1,1.6-1,3.2c-1.3,0.1-2.1,0.5-2.2,1.3
		c0,0.3,0.4,0.7,1,0.9c0,4,0,6,0,6c-1.9,0.5-3,1.3-3.4,2.5c0.2,0.3,0.6,0.7,1.2,1c0,9.7,0,14.6,0,14.6c-1.7,0.7-1.9,1.7-0.1,3
		c0,9.7,0,14.6,0,14.6c-1.2,0-1.7,0-1.7,0v2.7H92v-65l1.9-2.3l-0.1-23.1l-1.5-2.8v-5.5l-0.6-1.3l-0.8-8.4l-0.7,7.4l-2.1-2.4
		l-1.6-4.4v-13.4l-0.8-8.1l-0.8,7.5l-4.5-24.6l-4.5,24.6l-0.8-7.5l-0.7,8.1v13.4l-1.7,4.4l-2.1,2.4l-0.7-7.4l-0.8,8.4l-0.6,1.3v5.5
		l-1.5,2.8l-0.1,23.1l1.9,2.3v65.1h-6.6v8.6H51.2v-24.6l0.8-1l-0.1-10.4l-0.7-1.3v-2.4l-0.2-0.6l-0.7-0.5l-0.9-1.2l-0.7-2v-6
		l-0.7-0.2L45.9,389l-2,11.1l-0.7,0.2v6l-0.8,2l-0.9,1.2l-0.7,0.5l-0.2,0.6v2.4l-0.7,1.3v5.3l-0.5-0.9v-2.4l-0.2-0.6l-0.7-0.5
		l-1-1.2l-0.7-2v-6l-0.7-0.2L34,394.6l-2,11.2l-0.7,0.2v6l-0.8,2l-0.9,1.2l-0.7,0.5l-0.2,0.6v2.4l-0.7,1.3v10.4l0.8,1L28.8,434.3
		L28.8,434.3z M574,422.5h-7.9c-2.2-1.3-4.3-2.7-6.4-4c-8.1-5.8-15-13.3-19.9-22.3V395c4.1,6.5,9.7,12.4,17,17.4
		c5,3.6,10.6,6.7,17.1,9.6V422.5z M563.1,422.5h-4.3v7.2h-15h-2.7V427h-2.4v-29.8c5,9,11.9,16.6,20.1,22.5
		C560.2,420.7,561.6,421.6,563.1,422.5L563.1,422.5L563.1,422.5z M558.9,432.9v1.2h-15v-1.2H558.9z M558.9,435.4v6.4h-15v-6.4H558.9
		z M305.8,414.5h4.7l0.5-1.8l-2.4,0.8l0,0l-2.9,1H305.8L305.8,414.5z M311.7,414.5h2.2c-0.6-0.5-1.3-1-1.9-1.5L311.7,414.5z
		 M315.9,414.5h3.2v2.2l0,0l1,0.6l20-34.5l0.6-2.2l-29.8,29.7l0.9,1c0.2,0.1,0.3,0.2,0.6,0.5l2,1.6L315.9,414.5L315.9,414.5z
		 M319.2,418v1.4l1-0.7C319.8,418.5,319.5,418.3,319.2,418L319.2,418z M319.2,420.7v3.6c0.6,0.4,1.2,0.6,1.7,0.9v-3v-2.7
		L319.2,420.7L319.2,420.7z M319.2,426v15.7h5.2l2.7-9.9c0-0.2,0-0.5,0.1-0.7c0.1-0.2,0.1-0.5,0.3-0.7l0.2-0.9
		C324.7,428.5,321.8,427.4,319.2,426L319.2,426z M327.4,441.7h33.8l-2.1-7.6c-1,0-2-0.7-2.3-1.8c-0.1-0.6,0-1.2,0.2-1.7
		c-3.6,0.9-7.2,1.4-11,1.5c0.5,0.3,0.7,0.9,0.7,1.6c0,1.3-1.2,2.3-2.4,2.3s-2.3-1-2.3-2.3c0-0.7,0.2-1.3,0.6-1.6
		c-3.7-0.1-7.4-0.6-11-1.5c0.2,0.6,0.3,1.2,0.2,1.7c-0.4,1.2-1.3,1.8-2.3,1.8L327.4,441.7z M364.2,441.7h3.6V431h1v-4.5h1.9
		c-0.1-0.3-0.1-0.7,0-1c-3.1,1.6-6.4,3-9.7,4l0.2,0.9c0.1,0.2,0.2,0.5,0.2,0.7c0.1,0.2,0.1,0.5,0.1,0.7L364.2,441.7L364.2,441.7z
		 M477.4,449.9h38.9v-14.1c-12.8-2.2-26-2.2-38.9,0V449.9z M433.9,414.6c0,0.2,0,0.3,0,0.6l0,0c0,1.2-0.9,2.2-2.1,2.2l0,0v2.7
		c0.7-0.5,1.5-1,2.2-1.5c8.1-5.8,14.9-13.3,19.9-22.3V395c-4.2,6.5-9.8,12.4-17,17.4C435.9,413.2,435,413.9,433.9,414.6L433.9,414.6
		z M431.8,421.7v8h3V429h2.4v0.7h1.7V429h2.4v0.7h1.7V429h2.4v0.7h2.2v-3.2h5.4v0.6h1.9v-29.8c-5,9-11.9,16.6-20.1,22.5
		C433.9,420.5,432.9,421.2,431.8,421.7L431.8,421.7L431.8,421.7z M374.3,427.9v3.1h2.2v-2h2.3v2h1.9v-2h2.3v2h1.9v-2h2.3v2h3v-13.6
		l0,0c-1.2,0-2.1-1-2.1-2.2l0,0c0-1.2,0.9-2.1,2.1-2.2V412v-3.4c0-0.3,0-0.6,0.1-0.9c-1.6,2.4-3.5,4.6-5.4,6.7
		c0.6,0,1.2,0.2,1.6,0.7c0.9,0.9,0.9,2.4,0,3.3c-0.9,0.9-2.4,0.9-3.4,0c-0.5-0.5-0.7-1-0.7-1.6c-2.7,2.5-5.7,4.9-8.8,6.8
		c0.6,0.1,1,0.5,1.4,1C375.6,425.9,375.3,427.2,374.3,427.9L374.3,427.9z M394.5,400.6c0.2-0.1,0.5-0.1,0.8-0.2v-1.5
		C394.9,399.4,394.7,400,394.5,400.6L394.5,400.6z M395.3,394.7v-1.2h0.3c0.1-0.5,0.3-0.9,0.5-1.4l-3,0.3l-2.5,0.5l1.7,1.8l2.1,2.3
		C394.7,396.3,394.9,395.5,395.3,394.7L395.3,394.7L395.3,394.7z M473.5,391v2c15.6,0,31.2,0,46.9,0v-2
		C504.7,391,489.1,391,473.5,391L473.5,391z M473.5,394.1v2.3h-1.2V427h2.4v2.7h2.7c13,0,25.9,0,38.9,0h2.8V427h2.4v-30.6h-1.2v-2.3
		C504.7,394.1,489.1,394.1,473.5,394.1L473.5,394.1L473.5,394.1z M477.4,431v1.8c13,0,25.9,0,38.9,0V431
		C503.3,431,490.4,431,477.4,431L477.4,431z M344.7,379.9l11.3,42.5h-0.1l-0.3,0.1l-2.8,0.5l-2.5,0.5l-0.6,0.1l-2.7,0.1l-2.3,0.2
		L344.7,379.9L344.7,379.9z M356.6,424.6l1,4.2c-0.9,0.2-2,0.5-3,0.7l0.8-2.9l0.6-2.5L356.6,424.6L356.6,424.6z M360.1,426.7l-1-3.9
		c0.6-0.2,1.2-0.3,1.6-0.6l-0.3,2.4L360.1,426.7L360.1,426.7z M358.7,421.6l-9.6-35.9l18.6,32l-0.9,0.6l-0.3,0.1l-2.5,1.2l0,0
		l-2.5,1.2l-0.2,0.1L358.7,421.6L358.7,421.6z M348.3,382.7l-0.6-2.2l29.8,29.7l-1.2,1.2c-0.1,0.2-0.3,0.3-0.5,0.6l-2.1,1.6l0,0
		l-2,1.6l-0.5,0.2l-2.3,1.5l0,0l-0.8,0.3L348.3,382.7z M347.4,378.9l-0.1-0.3l37.9,22l-1.3,2.1l-0.2,0.5l-1.6,2.1l-1.6,2.1
		c-0.1,0.1-0.2,0.3-0.5,0.6l-1.7,1.8l0,0h-0.1L347.4,378.9L347.4,378.9z M343.9,379.9l-11.3,42.5h0.1l2.7,0.6l2.7,0.5l0.6,0.1
		l2.5,0.1l2.7,0.2h0.1V379.9L343.9,379.9z M332.1,424l-1.3,4.7c0.8,0.2,1.7,0.5,2.7,0.6l-0.8-2.9l0,0l-0.6-2.5L332.1,424L332.1,424z
		 M328.5,426.1l0.9-3.3c-0.7-0.2-1.3-0.5-2-0.7l0.3,2.4l0.2,2.2L328.5,426.1z M329.8,421.6l9.6-35.9l-18.5,32l0.6,0.3l0.3,0.2
		l2.4,1.2l2.5,1.2l0.4,0.1l2.5,0.8L329.8,421.6L329.8,421.6z M341.1,378.9l0.1-0.3l-37.9,22l1,1.8l0.3,0.5l1.6,2.1l1.5,2.1
		c0.1,0.1,0.3,0.3,0.5,0.6l1.7,1.9l0.3,0.2L341.1,378.9L341.1,378.9z M177.2,397.5c-1.6,0-2.9,1.3-2.9,2.9c0,1.6,1.3,2.9,2.9,2.9
		c1.5,0,2.8-1.3,2.8-2.9C180,398.7,178.7,397.5,177.2,397.5L177.2,397.5z M177.2,427.7L177.2,427.7c-1.7,0-3,1.4-3,3.1v6.6h6v-6.6
		C180.2,429.1,178.8,427.7,177.2,427.7L177.2,427.7z M117.4,397.5c1.6,0,2.9,1.3,2.9,2.9c0,1.6-1.3,2.9-2.9,2.9
		c-1.5,0-2.8-1.3-2.8-2.9C114.6,398.7,115.9,397.5,117.4,397.5L117.4,397.5z M117.4,427.7L117.4,427.7c1.7,0,3,1.4,3,3.1v6.6h-6
		v-6.6C114.4,429.1,115.8,427.7,117.4,427.7L117.4,427.7z M80.4,351.5c4.2,0,7.5,3.4,7.5,7.5s-3.4,7.5-7.5,7.5
		c-4.2,0-7.5-3.4-7.5-7.5C72.9,354.8,76.2,351.5,80.4,351.5L80.4,351.5z M382.5,338.1c-0.3-0.3-0.7-0.7-1-0.9l-0.9,2.8l-0.8,2.4
		l2.5-0.7l2.9-0.7C384.3,339.9,383.5,339,382.5,338.1L382.5,338.1L382.5,338.1z M380.5,336.1c-1.3-1.2-2.7-2.2-4.1-3.2l-0.6,2.9
		l-0.5,2.5l2.3-1l0,0L380.5,336.1L380.5,336.1z M375.3,332.1c-1.4-1-2.9-2-4.4-2.9l-0.2,3l0,0l-0.2,2.5l2.3-1.3L375.3,332.1
		L375.3,332.1z M369.6,328.6c-1.5-0.9-3.1-1.6-4.7-2.3l0.1,3l0.1,2.5l2.1-1.5L369.6,328.6z M363.6,325.8c-1.6-0.7-3.4-1.2-5.1-1.6
		l0.6,2.9l0.5,2.5l1.9-1.7L363.6,325.8L363.6,325.8z M357.2,323.9c-1.7-0.5-3.5-0.8-5.2-1l0.9,2.9l0.7,2.4l1.6-2l0,0L357.2,323.9z
		 M350.6,322.6c-1.9-0.1-3.7-0.2-5.7-0.3l1.3,2.8l1.3,2.7l1.5-2.5L350.6,322.6z M343.6,322.2c-1.7,0.1-3.5,0.1-5.2,0.3l1.5,2.5
		l1.4,2.2l1-2.3L343.6,322.2L343.6,322.2z M337,322.8c-1.7,0.2-3.5,0.5-5.2,0.9l1.9,2.3l1.6,2l0.8-2.4L337,322.8L337,322.8z
		 M330.4,324.1c-1.7,0.5-3.4,0.9-5,1.6l2.1,2.1l0,0l1.9,1.7l0.5-2.5L330.4,324.1L330.4,324.1z M324.1,326.2
		c-1.7,0.7-3.2,1.4-4.9,2.2l2.4,1.9l0,0l2.1,1.5l0.1-2.5L324.1,326.2z M318.1,329.1c-1.6,0.8-3.1,1.7-4.5,2.8l2.5,1.5l2.2,1.3
		l-0.1-2.5L318.1,329.1z M312.4,332.6c-1.4,1-2.8,2.1-4.2,3.2l2.8,1.2l2.4,1l-0.5-2.5L312.4,332.6L312.4,332.6z M307.4,336.8
		c-0.5,0.5-0.9,0.9-1.4,1.3c-0.8,0.8-1.6,1.7-2.3,2.5l2.9,0.8l2.4,0.7l-0.8-2.4l0,0L307.4,336.8z M302.7,341.7
		c-1.2,1.4-2.2,2.8-3.2,4.2l3,0.5l0,0l2.5,0.5l-1-2.3L302.7,341.7L302.7,341.7z M298.8,347c-0.9,1.5-1.9,3-2.7,4.6l3,0.1h2.5
		l-1.4-2.1L298.8,347L298.8,347z M295.5,352.8c-0.8,1.6-1.5,3.2-2.1,5l3-0.3l2.5-0.2l-1.6-2L295.5,352.8L295.5,352.8z M293,359
		c-0.6,1.6-1,3.3-1.5,5.1l3-0.7l2.4-0.6l-1.9-1.7L293,359z M291.3,365.3c-0.3,1.7-0.7,3.5-0.8,5.2l2.8-0.9l2.4-0.9l-2.1-1.5
		L291.3,365.3L291.3,365.3z M290.3,371.9c-0.1,1.5-0.2,3-0.2,4.4c0,0.3,0,0.6,0,0.9l2.7-1.4l2.3-1l-2.2-1.4L290.3,371.9z
		 M290.1,378.6c0.1,1.7,0.2,3.5,0.5,5.2l2.5-1.6l2.2-1.4l-2.4-1L290.1,378.6z M290.8,385.2c0.3,1.7,0.7,3.5,1.2,5.2l2.3-2l1.9-1.6
		l-2.4-0.8L290.8,385.2L290.8,385.2z M292.3,391.7c0.5,1.7,1.2,3.3,1.7,5l2.1-2.2l1.7-1.8l-2.5-0.5L292.3,391.7L292.3,391.7z
		 M294.6,397.9c0.7,1.6,1.5,3.2,2.3,4.7l1.7-2.4l0,0l1.5-2.1l-2.5-0.1L294.6,397.9z M297.6,403.9c0.9,1.5,1.9,3,2.9,4.4l1.5-2.7
		l1.2-2.3l-2.5,0.2l0,0L297.6,403.9z M301.3,409.4c1.2,1.4,2.3,2.8,3.5,4l1-2.8l0.9-2.4l-2.4,0.6L301.3,409.4L301.3,409.4z
		 M322,425.8c1.6,0.7,3.4,1.3,5,1.8l-0.3-3l-0.3-2.5l-2,1.7L322,425.8z M334.8,429.6c1.7,0.3,3.5,0.6,5.3,0.7l-1.2-2.8l0,0l-0.9-2.4
		l-1.4,2.1l0,0L334.8,429.6L334.8,429.6z M341.5,430.4c0.9,0,1.9,0.1,2.8,0.1c0.8,0,1.6-0.1,2.4-0.1l-1.4-2.7l-1.2-2.2l-1.3,2.2
		L341.5,430.4z M348.1,430.3c1.7-0.1,3.6-0.2,5.2-0.6l-1.7-2.4l-1.4-2.1l-0.9,2.3L348.1,430.3z M361.1,427.7c1.6-0.5,3.4-1.2,5-1.8
		l-2.3-2l0,0l-2-1.6l-0.3,2.4L361.1,427.7L361.1,427.7z M367.3,425.3c1.6-0.7,3.2-1.6,4.7-2.4l-2.5-1.7l0,0l-2.1-1.4v2.5
		L367.3,425.3z M373.2,422.1c1.5-0.9,2.9-2,4.3-3l-2.7-1.3l-2.3-1.2l0.3,2.5l0,0L373.2,422.1z M378.6,418.3c1.3-1.2,2.7-2.3,3.8-3.6
		l-2.8-1l-2.4-0.8l0.6,2.4l0,0L378.6,418.3z M383.5,413.8c1.2-1.3,2.3-2.7,3.5-4l-3-0.7l-2.4-0.5l0.9,2.3l0,0L383.5,413.8
		L383.5,413.8z M387.8,408.7c1-1.5,2.1-2.9,2.9-4.4l-3-0.4l-2.5-0.2l1.3,2.3L387.8,408.7z M391.3,403c0.9-1.5,1.7-3.1,2.4-4.6h-3
		l0,0l-2.5,0.1l1.5,2.1L391.3,403z M396.4,390.8c0.5-1.6,0.9-3.3,1.2-5.1l-2.9,0.8l-2.4,0.7l2,1.6L396.4,390.8L396.4,390.8z
		 M397.8,384.3c0.2-1.7,0.5-3.5,0.6-5.3l-2.8,1.2l-2.4,1l2.2,1.4L397.8,384.3L397.8,384.3z M398.4,377.6c0-0.3,0-0.8,0-1.3
		c0-1.3,0-2.7-0.1-3.9l-2.7,1.5l-2.2,1.3l2.3,1.2L398.4,377.6z M398.2,371c-0.2-1.7-0.5-3.5-0.8-5.2l-2.4,1.7l-2,1.6l2.3,0.8
		L398.2,371L398.2,371z M397.1,364.4c-0.5-1.7-0.9-3.5-1.4-5.1l-2.2,2.1l-1.9,1.7l2.4,0.6L397.1,364.4z M395.3,358.1
		c-0.7-1.7-1.3-3.3-2.1-4.9l-1.9,2.3l-1.6,2l2.5,0.2L395.3,358.1z M392.6,351.9c-0.8-1.6-1.7-3.1-2.7-4.6l-1.6,2.5l-1.3,2.2l2.5-0.1
		l0,0L392.6,351.9L392.6,351.9z M389.3,346.2c-1-1.4-2.1-2.9-3.2-4.2l-1.3,2.7l0,0l-1,2.3l2.5-0.3L389.3,346.2L389.3,346.2z
		 M344.3,327.7c0.7,0,1.3,0,2,0.1l-1-2.3l-0.9-2l-0.9,2l-1,2.3C343,327.7,343.6,327.7,344.3,327.7L344.3,327.7L344.3,327.7z
		 M348.7,327.9c1.3,0.1,2.7,0.2,3.9,0.5l-0.8-2.3l-0.6-2.1l-1.2,1.8L348.7,327.9L348.7,327.9z M354.6,328.8c1.3,0.2,2.5,0.6,3.8,0.9
		l-0.5-2.4l-0.3-2.1l-1.4,1.6l0,0L354.6,328.8z M360.3,330.5c1.3,0.3,2.4,0.9,3.7,1.4l-0.2-2.4l-0.1-2.2l-1.5,1.5L360.3,330.5
		L360.3,330.5z M365.9,332.8c1.2,0.6,2.3,1.2,3.5,1.8l0.1-2.4l0.1-2.2l-1.7,1.3L365.9,332.8L365.9,332.8z M371.1,335.8
		c1,0.7,2.1,1.4,3.1,2.2l0.5-2.4l0.5-2.1l-2,1L371.1,335.8L371.1,335.8z M375.8,339.3c1,0.8,2,1.7,2.9,2.7l0,0l0.8-2.4l0.6-2.1
		l-2,0.9l0,0L375.8,339.3L375.8,339.3z M380.2,343.5c0.8,0.9,1.6,2,2.4,2.9l1-2.2l0,0l0.9-2l-2.1,0.6L380.2,343.5L380.2,343.5z
		 M383.9,348.1c0.8,1,1.5,2.2,2.2,3.2l1.3-2.1l1.2-1.8l-2.2,0.3L383.9,348.1L383.9,348.1z M387.2,353.2c0.6,1.2,1.2,2.3,1.6,3.5
		l1.6-1.8l1.4-1.7h-2.2L387.2,353.2z M389.6,358.6c0.6,1.2,0.9,2.4,1.3,3.7l1.9-1.7l1.5-1.5l-2.1-0.2L389.6,358.6L389.6,358.6z
		 M391.5,364.3c0.4,1.3,0.6,2.5,0.8,3.8l2-1.5l1.7-1.3l-2.1-0.5L391.5,364.3L391.5,364.3z M392.6,370.2c0.1,1.3,0.2,2.5,0.3,3.9
		l2.1-1.3l2-1l-2.1-0.8L392.6,370.2z M393,376.2v0.1c0,1.3,0,2.5-0.1,3.8l2.3-1l2-0.8l-2-1L393,376.2L393,376.2z M392.6,382.2
		c-0.1,1.3-0.3,2.5-0.6,3.8l2.4-0.7l2.1-0.6l-1.9-1.3L392.6,382.2z M391.6,388.1c-0.3,1.2-0.7,2.4-1,3.7l2.4-0.3l2.1-0.3l-1.6-1.4
		L391.6,388.1L391.6,388.1z M389.8,393.8c-0.5,1.3-1,2.4-1.6,3.6l2.5-0.1h2.1l-1.4-1.6L389.8,393.8z M387.3,399.2
		c-0.6,1.2-1.3,2.3-2,3.4l2.4,0.2l2.2,0.2l-1.3-1.7L387.3,399.2L387.3,399.2z M384.2,404.3c-0.7,1-1.5,2.1-2.3,3.1l2.3,0.6l2.2,0.5
		l-1-2L384.2,404.3z M380.5,409c-0.6,0.6-1.2,1.2-1.7,1.7c-0.3,0.3-0.7,0.7-1,1l2.3,0.8l2.1,0.7l-0.8-2l0,0L380.5,409L380.5,409z
		 M376.2,413.2c-1,0.8-2.1,1.6-3.1,2.4l2.2,1.2l2,0.9l-0.5-2.1l0,0L376.2,413.2L376.2,413.2z M371.4,416.8c-1.2,0.8-2.2,1.5-3.4,2.1
		l2.1,1.4l0,0l1.7,1.2l-0.2-2.1L371.4,416.8L371.4,416.8z M366.2,419.9c-1.2,0.6-2.3,1-3.6,1.6l1.9,1.5l1.7,1.5v-2.2V419.9
		L366.2,419.9z M354.9,423.8c-1.2,0.3-2.5,0.6-3.8,0.8l1.5,2l1.2,1.7l0.6-2.1L354.9,423.8z M349,424.9c-1.3,0.1-2.5,0.1-3.8,0.2
		l1.2,2.2l1,1.8l0.7-2L349,424.9z M343.1,425.1c-1.4-0.1-2.7-0.2-3.9-0.3l0.9,2.3l0,0l0.7,2.1l1-2L343.1,425.1z M337.1,424.5
		c-1.3-0.2-2.5-0.5-3.8-0.7l0.6,2.4l0,0l0.6,2.1l1.2-1.8l0,0L337.1,424.5z M325.5,421.3c-1.2-0.5-2.3-1-3.5-1.6v2.5v2.1l1.6-1.4
		L325.5,421.3z M310.6,411.6c-0.2-0.2-0.6-0.6-0.8-0.8c-0.7-0.7-1.3-1.3-2-2.1L307,411l-0.8,2.1l2.1-0.7l0,0L310.6,411.6z
		 M306.5,407.2c-0.8-1-1.6-2.1-2.4-3.1l-1.2,2.2l-1,1.8l2.2-0.5L306.5,407.2L306.5,407.2z M303,402.3c-0.7-1.2-1.3-2.3-1.9-3.5
		l-1.5,2.1l0,0l-1.3,1.7l2.2-0.2v0.1L303,402.3L303,402.3z M300.2,397c-0.6-1.2-1.2-2.3-1.5-3.6l-1.7,1.9l-1.5,1.6h2.2L300.2,397
		L300.2,397z M298,391.5c-0.5-1.3-0.8-2.4-1.2-3.7l-1.9,1.5l-1.6,1.5l2.1,0.3L298,391.5z M296.5,385.7c-0.3-1.3-0.5-2.5-0.7-3.9
		l-2,1.4l-1.9,1.3l2.1,0.6L296.5,385.7L296.5,385.7z M295.7,379.7c-0.1-1-0.1-2.2-0.1-3.3v-0.5l-2.2,1l-2,1l2,0.8L295.7,379.7z
		 M295.5,373.8c0.1-1.4,0.2-2.7,0.5-3.9l-2.4,0.8l-2,0.7l1.9,1.2L295.5,373.8L295.5,373.8z M296.2,367.8c0.2-1.3,0.6-2.5,0.9-3.8
		l-2.4,0.6l-2.2,0.5l1.7,1.3L296.2,367.8L296.2,367.8z M297.8,362c0.3-1.3,0.8-2.5,1.3-3.7l-2.4,0.2l-2.2,0.2l1.5,1.5L297.8,362
		L297.8,362z M299.8,356.3c0.6-1.2,1.2-2.3,1.7-3.5h-2.4l-2.2-0.1l1.4,1.7L299.8,356.3L299.8,356.3z M302.6,351.1
		c0.7-1.2,1.4-2.2,2.2-3.3l-2.4-0.3l0,0l-2.2-0.3l1.2,1.8L302.6,351.1L302.6,351.1z M306.1,346.2c0.8-1,1.6-2,2.5-3l-2.4-0.6
		l-2.1-0.7l0.9,2.1L306.1,346.2L306.1,346.2z M310,341.7c0.9-0.8,2-1.7,2.9-2.5l-2.2-1l-2.1-0.8l0.7,2.1l0,0L310,341.7L310,341.7z
		 M314.5,337.7c1-0.7,2.1-1.5,3.2-2.2l-2.2-1.3l-1.9-1l0.3,2.1L314.5,337.7L314.5,337.7z M319.5,334.4c1.2-0.6,2.3-1.3,3.5-1.8
		l-2-1.4l0,0l-1.7-1.4l0.1,2.2L319.5,334.4L319.5,334.4z M324.9,331.7c1.2-0.6,2.3-1,3.6-1.4l-1.7-1.7l-1.6-1.5l-0.1,2.2
		L324.9,331.7L324.9,331.7z M330.5,329.6c1.3-0.3,2.5-0.7,3.8-0.9l-1.6-2l-1.3-1.6l-0.5,2.1L330.5,329.6L330.5,329.6z M336.4,328.4
		c1.3-0.2,2.5-0.3,3.8-0.5l-1.3-2.2l-1.2-1.8l-0.7,2.1L336.4,328.4z M374.6,339.7l-0.5-0.3l-2.1-1.5l-2.3-1.6l-0.3-0.2l-0.9-0.6
		l-22.3,38.5l31.5-31.4l-1-0.9L374.6,339.7L374.6,339.7z M364.6,333.3l-0.3-0.1l-2.5-1l-2.7-0.9l-0.2-0.1l-1.9-0.5l-11.6,42.9
		l22.2-38.5l-0.6-0.3L364.6,333.3L364.6,333.3z M341.7,329c-0.2,0-0.5,0-0.7,0l-2.5,0.3l-2.8,0.3h-0.3l-2.7,0.7l-0.3,0.1l11.6,42.9
		V329L341.7,329L341.7,329z M330,331l-0.3,0.1l-2.5,0.9l-2.5,1l-0.3,0.1l-2.4,1.3l0,0l-0.9,0.6l22.2,38.5l-11.6-42.9L330,331z
		 M319.5,335.8l-0.5,0.3l-2.2,1.5l-2.1,1.5l-0.6,0.5l-1.9,1.7l-1.4,1.2l31.5,31.4l-22.2-38.5L319.5,335.8z M310.4,343l-0.5,0.5
		l-1.6,2l-1.7,2l-0.5,0.5l-1.4,2.2l-1.4,2.2l38.5,22.2L310.4,343L310.4,343z M300.5,357.6l-0.1,0.3l-0.9,2.5l-0.9,2.7l-0.1,0.3v0.2
		l43,11.4L302.8,353l-1,2.2L300.5,357.6L300.5,357.6z M297.3,368.8l-0.1,0.5l-0.2,2.7l-0.2,2.5c0,0.2,0,0.5,0,0.8v0.7h44.5l-43-11.6
		l-0.3,1.7l0,0L297.3,368.8L297.3,368.8z M296.8,380.4c0,0.2,0.1,0.3,0.1,0.6l0.3,2.7l0.5,2.7v0.3l0.5,1.6l43-11.4h-44.5l0.1,0.9
		L296.8,380.4L296.8,380.4z M299.3,391.9l0.1,0.3l1.2,2.5l1,2.4l0.1,0.3l1.3,2.2l38.5-22.2l-43,11.4l0.1,0.2L299.3,391.9z
		 M386.7,397.9l0.1-0.3l1-2.5l1.2-2.5l0.1-0.2l0.8-2.7l0.1-0.6l-42.9-11.4l38.5,22.2L386.7,397.9L386.7,397.9z M390.6,387l0.1-0.3
		l0.5-2.7l0.3-2.7c0-0.2,0.1-0.5,0.1-0.6l0.1-2.7v-1.3h-44.5l43,11.4L390.6,387L390.6,387z M391.8,375.5c0-0.2,0-0.5,0-0.7l-0.2-2.5
		l-0.2-2.8V369l-0.6-2.5l-0.5-2.1l-43,11.6h44.5L391.8,375.5L391.8,375.5z M390.2,363.7l-0.1-0.3l-0.9-2.5l-0.9-2.7l-0.1-0.2
		l-1.2-2.4l-1.3-2.5l0,0l-38.5,22.2L390.2,363.7z M382.5,348.1l-0.3-0.5l-1.6-2l-1.7-2l-0.5-0.5l-0.2-0.2l-31.5,31.4l38.5-22.2
		l-1.2-1.8L382.5,348.1L382.5,348.1z"/>
</g>
</svg>
